<svg width="26" height="32" viewBox="0 0 26 32" fill="none" xmlns="http://www.w3.org/2000/svg">
<path d="M19.6021 3.59192L18.5273 5.45163L22.2513 7.60112L23.3261 5.74136C23.6221 5.22512 23.4458 4.57012 22.9316 4.27187L21.0719 3.1971C20.5574 2.89916 19.9004 3.07542 19.6021 3.59192Z" fill="#319F1C"/>
<path d="M13.0002 4.83974C13.68 4.83974 14.344 4.90625 15.0002 5V3.2605L16.3752 3.24999V1C16.3752 0.447268 15.928 0 15.3752 0H10.6357C10.083 0 9.63574 0.447268 9.63574 1V3.24999L11.0002 3.2605V5C11.6565 4.90625 12.3205 4.83974 13.0002 4.83974Z" fill="#319F1C"/>
<path d="M13 6C5.82029 6 0 11.8202 0 19C0 26.1798 5.82029 32 13 32C20.1797 32 26 26.1798 26 19C26 11.8202 20.1797 6 13 6ZM19.075 25.11L11.5 19.8658V12.4622H13.686V18.7205L20.3192 23.3127L19.075 25.11Z" fill="#319F1C"/>
</svg>
